<?xml version="1.0" encoding="UTF-8" standalone="no"?>
<!DOCTYPE svg PUBLIC "-//W3C//DTD SVG 1.1//EN"
 "http://www.w3.org/Graphics/SVG/1.1/DTD/svg11.dtd">
<!-- Generated by graphviz version 2.38.0 (20140413.2041)
 -->
<!-- Title: G Pages: 1 -->
<svg width="3980pt" height="697pt"
 viewBox="0.00 0.00 3980.00 697.20" xmlns="http://www.w3.org/2000/svg" xmlns:xlink="http://www.w3.org/1999/xlink">
<g id="graph0" class="graph" transform="scale(1 1) rotate(0) translate(4 693.2)">
<title>G</title>
<polygon fill="white" stroke="none" points="-4,4 -4,-693.2 3976,-693.2 3976,4 -4,4"/>
<g id="clust1" class="cluster"><title>cluster_0</title>
<polygon fill="lightgray" stroke="lightgrey" points="731,-402.6 731,-681.2 1371,-681.2 1371,-402.6 731,-402.6"/>
<text text-anchor="middle" x="1012.69" y="-650.2" font-family="Times,serif" font-size="30.00">/home/x51v4n/src/GitHub/CoffeeTime/app.js</text>
</g>
<g id="clust2" class="cluster"><title>cluster_1</title>
<polygon fill="lightgray" stroke="lightgrey" points="8,-250.4 8,-377.8 676,-377.8 676,-250.4 8,-250.4"/>
<text text-anchor="middle" x="342.186" y="-346.8" font-family="Times,serif" font-size="30.00">/home/x51v4n/src/GitHub/CoffeeTime/routes/index.js</text>
</g>
<g id="clust3" class="cluster"><title>cluster_2</title>
<polygon fill="lightgray" stroke="lightgrey" points="684,-8 684,-394.6 1377,-394.6 1377,-8 684,-8"/>
<text text-anchor="middle" x="1030.67" y="-363.6" font-family="Times,serif" font-size="30.00">/home/x51v4n/src/GitHub/CoffeeTime/routes/streams.js</text>
</g>
<g id="clust4" class="cluster"><title>cluster_3</title>
<polygon fill="lightgray" stroke="lightgrey" points="1385,-250.4 1385,-377.8 2048,-377.8 2048,-250.4 1385,-250.4"/>
<text text-anchor="middle" x="1716.68" y="-346.8" font-family="Times,serif" font-size="30.00">/home/x51v4n/src/GitHub/CoffeeTime/routes/users.js</text>
</g>
<g id="clust5" class="cluster"><title>cluster_4</title>
<polygon fill="lightgray" stroke="lightgrey" points="2056,-225.2 2056,-593.2 3173,-593.2 3173,-225.2 2056,-225.2"/>
<text text-anchor="middle" x="2463.5" y="-562.2" font-family="Times,serif" font-size="30.00">/home/x51v4n/src/GitHub/CoffeeTime/public/stylesheets/style.css</text>
</g>
<g id="clust6" class="cluster"><title>cluster_5</title>
<polygon fill="lightgray" stroke="lightgrey" points="3181,-8 3181,-614 3964,-614 3964,-8 3181,-8"/>
<text text-anchor="middle" x="3572.67" y="-583" font-family="Times,serif" font-size="30.00">/home/x51v4n/src/GitHub/CoffeeTime/public/javascripts/app.js</text>
</g>
<!-- 0 -->
<g id="node1" class="node"><title>0</title>
<polygon fill="lightyellow" stroke="black" points="1123,-411.1 1123,-628.7 1363,-628.7 1363,-411.1 1123,-411.1"/>
<text text-anchor="middle" x="1243" y="-612.1" font-family="Times,serif" font-size="14.00">«GLOBAL»</text>
<polyline fill="none" stroke="black" points="1123,-603.9 1363,-603.9 "/>
<text text-anchor="start" x="1131" y="-587.3" font-family="Times,serif" font-size="14.00">&#45;app : variable</text>
<text text-anchor="start" x="1131" y="-570.5" font-family="Times,serif" font-size="14.00">&#45;bodyParser : variable = body&#45;parser</text>
<text text-anchor="start" x="1131" y="-553.7" font-family="Times,serif" font-size="14.00">&#45;cookieParser : variable = cookie&#45;parser</text>
<text text-anchor="start" x="1131" y="-536.9" font-family="Times,serif" font-size="14.00">&#45;express : variable = express</text>
<text text-anchor="start" x="1131" y="-520.1" font-family="Times,serif" font-size="14.00">&#45;favicon : variable = serve&#45;favicon</text>
<text text-anchor="start" x="1131" y="-503.3" font-family="Times,serif" font-size="14.00">&#45;index : variable = .routesindex</text>
<text text-anchor="start" x="1131" y="-486.5" font-family="Times,serif" font-size="14.00">&#45;logger : variable = morgan</text>
<text text-anchor="start" x="1131" y="-469.7" font-family="Times,serif" font-size="14.00">&#45;path : variable = path</text>
<text text-anchor="start" x="1131" y="-452.9" font-family="Times,serif" font-size="14.00">&#45;session : variable = express&#45;session</text>
<text text-anchor="start" x="1131" y="-436.1" font-family="Times,serif" font-size="14.00">&#45;streams : variable = .routesstreams</text>
<text text-anchor="start" x="1131" y="-419.3" font-family="Times,serif" font-size="14.00">&#45;users : variable = .routesusers</text>
</g>
<!-- 1 -->
<g id="node4" class="node"><title>1</title>
<polygon fill="lightyellow" stroke="black" points="492.255,-258.9 492.255,-325.3 667.745,-325.3 667.745,-258.9 492.255,-258.9"/>
<text text-anchor="middle" x="580" y="-308.7" font-family="Times,serif" font-size="14.00">«GLOBAL»</text>
<polyline fill="none" stroke="black" points="492.255,-300.5 667.745,-300.5 "/>
<text text-anchor="start" x="500.255" y="-283.9" font-family="Times,serif" font-size="14.00">&#45;express : variable = express</text>
<text text-anchor="start" x="500.255" y="-267.1" font-family="Times,serif" font-size="14.00">&#45;router : variable</text>
</g>
<!-- 0&#45;&gt;1 -->
<g id="edge13" class="edge"><title>0&#45;&gt;1</title>
<path fill="none" stroke="black" d="M1119,-402.6C1074.11,-384.365 727.662,-413.388 683,-394.6 675.727,-391.54 668.688,-387.702 661.934,-383.323"/>
<polygon fill="black" stroke="black" points="663.749,-380.322 653.535,-377.504 659.762,-386.076 663.749,-380.322"/>
</g>
<!-- 2 -->
<g id="node6" class="node"><title>2</title>
<polygon fill="lightyellow" stroke="black" points="1119.1,-242.1 1119.1,-342.1 1366.9,-342.1 1366.9,-242.1 1119.1,-242.1"/>
<text text-anchor="middle" x="1243" y="-325.5" font-family="Times,serif" font-size="14.00">«GLOBAL»</text>
<polyline fill="none" stroke="black" points="1119.1,-317.3 1366.9,-317.3 "/>
<text text-anchor="start" x="1127.1" y="-300.7" font-family="Times,serif" font-size="14.00">&#45;express : variable = express</text>
<text text-anchor="start" x="1127.1" y="-283.9" font-family="Times,serif" font-size="14.00">&#45;mime : variable = mime</text>
<text text-anchor="start" x="1127.1" y="-267.1" font-family="Times,serif" font-size="14.00">&#45;router : variable</text>
<text text-anchor="start" x="1127.1" y="-250.3" font-family="Times,serif" font-size="14.00">&#45;torrentStream : variable = torrent&#45;stream</text>
</g>
<!-- 0&#45;&gt;2 -->
<g id="edge15" class="edge"><title>0&#45;&gt;2</title>
<path fill="none" stroke="black" d="M1243,-402.6C1243,-400.581 1243,-398.561 1243,-396.542"/>
<polygon fill="black" stroke="black" points="1246.5,-404.522 1243,-394.523 1239.5,-404.523 1246.5,-404.522"/>
</g>
<!-- 3 -->
<g id="node14" class="node"><title>3</title>
<polygon fill="lightyellow" stroke="black" points="1621.26,-258.9 1621.26,-325.3 1796.74,-325.3 1796.74,-258.9 1621.26,-258.9"/>
<text text-anchor="middle" x="1709" y="-308.7" font-family="Times,serif" font-size="14.00">«GLOBAL»</text>
<polyline fill="none" stroke="black" points="1621.26,-300.5 1796.74,-300.5 "/>
<text text-anchor="start" x="1629.26" y="-283.9" font-family="Times,serif" font-size="14.00">&#45;express : variable = express</text>
<text text-anchor="start" x="1629.26" y="-267.1" font-family="Times,serif" font-size="14.00">&#45;router : variable</text>
</g>
<!-- 0&#45;&gt;3 -->
<g id="edge14" class="edge"><title>0&#45;&gt;3</title>
<path fill="none" stroke="black" d="M1370.52,-493.742C1446.41,-474.726 1542.17,-443.374 1617,-394.6 1621.93,-391.387 1626.77,-387.846 1631.48,-384.072"/>
<polygon fill="black" stroke="black" points="1633.88,-386.625 1639.3,-377.516 1629.39,-381.262 1633.88,-386.625"/>
</g>
<!-- 21 -->
<g id="node2" class="node"><title>21</title>
<polygon fill="lightblue" stroke="black" points="954.434,-474.3 954.434,-565.5 1115.57,-565.5 1115.57,-474.3 954.434,-474.3"/>
<text text-anchor="middle" x="1035" y="-548.9" font-family="Times,serif" font-size="14.00">«FUNCTION»</text>
<text text-anchor="middle" x="1035" y="-532.1" font-family="Times,serif" font-size="14.00"> (req,res,next)</text>
<polyline fill="none" stroke="black" points="954.434,-523.9 1115.57,-523.9 "/>
<text text-anchor="start" x="962.434" y="-507.3" font-family="Times,serif" font-size="14.00">&#45;err.status : number = 404</text>
<polyline fill="none" stroke="black" points="954.434,-499.1 1115.57,-499.1 "/>
<text text-anchor="start" x="962.434" y="-482.5" font-family="Times,serif" font-size="14.00">&#45;undefined(Not Found)</text>
</g>
<!-- 22 -->
<g id="node3" class="node"><title>22</title>
<polygon fill="lightblue" stroke="black" points="739.043,-469.9 739.043,-569.9 946.957,-569.9 946.957,-469.9 739.043,-469.9"/>
<text text-anchor="middle" x="843" y="-553.3" font-family="Times,serif" font-size="14.00">«FUNCTION»</text>
<text text-anchor="middle" x="843" y="-536.5" font-family="Times,serif" font-size="14.00"> (err,req,res,next)</text>
<polyline fill="none" stroke="black" points="739.043,-528.3 946.957,-528.3 "/>
<text text-anchor="start" x="747.043" y="-511.7" font-family="Times,serif" font-size="14.00">+module.exports : identifier = app</text>
<text text-anchor="start" x="747.043" y="-494.9" font-family="Times,serif" font-size="14.00">&#45;res.locals.error</text>
<text text-anchor="start" x="747.043" y="-478.1" font-family="Times,serif" font-size="14.00">publicres.locals.message : object</text>
</g>
<!-- 31 -->
<g id="node5" class="node"><title>31</title>
<polygon fill="lightblue" stroke="black" points="140.437,-258.9 140.437,-325.3 361.563,-325.3 361.563,-258.9 140.437,-258.9"/>
<text text-anchor="middle" x="251" y="-308.7" font-family="Times,serif" font-size="14.00">«FUNCTION»</text>
<text text-anchor="middle" x="251" y="-291.9" font-family="Times,serif" font-size="14.00"> (req,res,next)</text>
<polyline fill="none" stroke="black" points="140.437,-283.7 361.563,-283.7 "/>
<text text-anchor="start" x="148.437" y="-267.1" font-family="Times,serif" font-size="14.00">+module.exports : identifier = router</text>
</g>
<!-- 13 -->
<g id="node7" class="node"><title>13</title>
<polygon fill="lightblue" stroke="black" points="980.574,-250.5 980.574,-333.7 1109.43,-333.7 1109.43,-250.5 980.574,-250.5"/>
<text text-anchor="middle" x="1045" y="-317.1" font-family="Times,serif" font-size="14.00">«FUNCTION»</text>
<text text-anchor="middle" x="1045" y="-300.3" font-family="Times,serif" font-size="14.00"> (req,res,next)</text>
<polyline fill="none" stroke="black" points="980.574,-292.1 1109.43,-292.1 "/>
<text text-anchor="start" x="988.574" y="-275.5" font-family="Times,serif" font-size="14.00">&#45;engine : variable</text>
<text text-anchor="start" x="988.574" y="-258.7" font-family="Times,serif" font-size="14.00">&#45;stream = undefined</text>
</g>
<!-- 14 -->
<g id="node8" class="node"><title>14</title>
<polygon fill="lightblue" stroke="black" points="872.96,-91.9 872.96,-216.7 983.04,-216.7 983.04,-91.9 872.96,-91.9"/>
<text text-anchor="middle" x="928" y="-200.1" font-family="Times,serif" font-size="14.00">«FUNCTION»</text>
<text text-anchor="middle" x="928" y="-183.3" font-family="Times,serif" font-size="14.00"> function</text>
<polyline fill="none" stroke="black" points="872.96,-175.1 983.04,-175.1 "/>
<text text-anchor="start" x="880.96" y="-158.5" font-family="Times,serif" font-size="14.00">&#45;file : object</text>
<text text-anchor="start" x="880.96" y="-141.7" font-family="Times,serif" font-size="14.00">&#45;index : variable</text>
<text text-anchor="start" x="880.96" y="-124.9" font-family="Times,serif" font-size="14.00">&#45;type : variable</text>
<polyline fill="none" stroke="black" points="872.96,-116.7 983.04,-116.7 "/>
<text text-anchor="start" x="880.96" y="-100.1" font-family="Times,serif" font-size="14.00">&#45;stream()</text>
</g>
<!-- 13&#45;&gt;14 -->
<g id="edge8" class="edge"><title>13&#45;&gt;14</title>
<path fill="none" stroke="black" d="M1002.04,-241.237C995.207,-233.306 988.069,-225.021 981.037,-216.86"/>
<polygon fill="black" stroke="black" points="1002.06,-241.264 1009.01,-243.199 1009.9,-250.356 1002.95,-248.421 1002.06,-241.264"/>
</g>
<!-- 15 -->
<g id="node9" class="node"><title>15</title>
<polygon fill="lightblue" stroke="black" points="989.96,-133.5 989.96,-175.1 1100.04,-175.1 1100.04,-133.5 989.96,-133.5"/>
<text text-anchor="middle" x="1045" y="-158.5" font-family="Times,serif" font-size="14.00">«FUNCTION»</text>
<text text-anchor="middle" x="1045" y="-141.7" font-family="Times,serif" font-size="14.00"> function</text>
</g>
<!-- 13&#45;&gt;15 -->
<g id="edge9" class="edge"><title>13&#45;&gt;15</title>
<path fill="none" stroke="black" d="M1045,-238.349C1045,-216.201 1045,-191.788 1045,-175.199"/>
<polygon fill="black" stroke="black" points="1045,-238.356 1049,-244.356 1045,-250.356 1041,-244.355 1045,-238.356"/>
</g>
<!-- 16 -->
<g id="node10" class="node"><title>16</title>
<polygon fill="lightblue" stroke="black" points="1106.96,-133.5 1106.96,-175.1 1217.04,-175.1 1217.04,-133.5 1106.96,-133.5"/>
<text text-anchor="middle" x="1162" y="-158.5" font-family="Times,serif" font-size="14.00">«FUNCTION»</text>
<text text-anchor="middle" x="1162" y="-141.7" font-family="Times,serif" font-size="14.00"> function</text>
</g>
<!-- 13&#45;&gt;16 -->
<g id="edge10" class="edge"><title>13&#45;&gt;16</title>
<path fill="none" stroke="black" d="M1088.07,-241.104C1107.77,-218.249 1129.97,-192.479 1144.86,-175.199"/>
<polygon fill="black" stroke="black" points="1087.94,-241.264 1087.05,-248.421 1080.1,-250.356 1080.99,-243.199 1087.94,-241.264"/>
</g>
<!-- 17 -->
<g id="node11" class="node"><title>17</title>
<polygon fill="lightblue" stroke="black" points="696.637,-242.1 696.637,-342.1 923.363,-342.1 923.363,-242.1 696.637,-242.1"/>
<text text-anchor="middle" x="810" y="-325.5" font-family="Times,serif" font-size="14.00">«FUNCTION»</text>
<text text-anchor="middle" x="810" y="-308.7" font-family="Times,serif" font-size="14.00"> (req,res,next)</text>
<polyline fill="none" stroke="black" points="696.637,-300.5 923.363,-300.5 "/>
<text text-anchor="start" x="704.637" y="-283.9" font-family="Times,serif" font-size="14.00">&#45;engine : variable</text>
<text text-anchor="start" x="704.637" y="-267.1" font-family="Times,serif" font-size="14.00">&#45;filesNames : array</text>
<text text-anchor="start" x="704.637" y="-250.3" font-family="Times,serif" font-size="14.00">publicreq.session.magnament : object</text>
</g>
<!-- 18 -->
<g id="node12" class="node"><title>18</title>
<polygon fill="lightblue" stroke="black" points="754.96,-133.5 754.96,-175.1 865.04,-175.1 865.04,-133.5 754.96,-133.5"/>
<text text-anchor="middle" x="810" y="-158.5" font-family="Times,serif" font-size="14.00">«FUNCTION»</text>
<text text-anchor="middle" x="810" y="-141.7" font-family="Times,serif" font-size="14.00"> function</text>
</g>
<!-- 17&#45;&gt;18 -->
<g id="edge11" class="edge"><title>17&#45;&gt;18</title>
<path fill="none" stroke="black" d="M810,-229.944C810,-210.208 810,-189.705 810,-175.192"/>
<polygon fill="black" stroke="black" points="810,-230.073 814,-236.073 810,-242.073 806,-236.073 810,-230.073"/>
</g>
<!-- 19 -->
<g id="node13" class="node"><title>19</title>
<polygon fill="lightblue" stroke="black" points="699.437,-16.5 699.437,-82.9 920.563,-82.9 920.563,-16.5 699.437,-16.5"/>
<text text-anchor="middle" x="810" y="-66.3" font-family="Times,serif" font-size="14.00">«FUNCTION»</text>
<text text-anchor="middle" x="810" y="-49.5" font-family="Times,serif" font-size="14.00"> function</text>
<polyline fill="none" stroke="black" points="699.437,-41.3 920.563,-41.3 "/>
<text text-anchor="start" x="707.437" y="-24.7" font-family="Times,serif" font-size="14.00">+module.exports : identifier = router</text>
</g>
<!-- 18&#45;&gt;19 -->
<g id="edge12" class="edge"><title>18&#45;&gt;19</title>
<path fill="none" stroke="black" d="M810,-120.743C810,-108.703 810,-95.0658 810,-83.0444"/>
<polygon fill="black" stroke="black" points="810,-121.03 814,-127.03 810,-133.03 806,-127.03 810,-121.03"/>
</g>
<!-- 20 -->
<g id="node15" class="node"><title>20</title>
<polygon fill="lightblue" stroke="black" points="1393.44,-258.9 1393.44,-325.3 1614.56,-325.3 1614.56,-258.9 1393.44,-258.9"/>
<text text-anchor="middle" x="1504" y="-308.7" font-family="Times,serif" font-size="14.00">«FUNCTION»</text>
<text text-anchor="middle" x="1504" y="-291.9" font-family="Times,serif" font-size="14.00"> (req,res,next)</text>
<polyline fill="none" stroke="black" points="1393.44,-283.7 1614.56,-283.7 "/>
<text text-anchor="start" x="1401.44" y="-267.1" font-family="Times,serif" font-size="14.00">+module.exports : identifier = router</text>
</g>
<!-- 4 -->
<g id="node16" class="node"><title>4</title>
<polygon fill="lightgreen" stroke="black" points="2366.82,-499.1 2366.82,-540.7 2759.18,-540.7 2759.18,-499.1 2366.82,-499.1"/>
<text text-anchor="middle" x="2563" y="-524.1" font-family="Times,serif" font-size="14.00">«CSS»</text>
<text text-anchor="middle" x="2563" y="-507.3" font-family="Times,serif" font-size="14.00"> /home/x51v4n/src/GitHub/CoffeeTime/public/stylesheets/style.css</text>
</g>
<!-- 6 -->
<g id="node17" class="node"><title>6</title>
<polygon fill="palegreen" stroke="black" points="2063.85,-233.7 2063.85,-350.5 2244.15,-350.5 2244.15,-233.7 2063.85,-233.7"/>
<text text-anchor="middle" x="2154" y="-333.9" font-family="Times,serif" font-size="14.00">html body</text>
<polyline fill="none" stroke="black" points="2063.85,-325.7 2244.15,-325.7 "/>
<text text-anchor="start" x="2071.85" y="-309.1" font-family="Times,serif" font-size="14.00">+background&#45;color = 121314</text>
<text text-anchor="start" x="2071.85" y="-292.3" font-family="Times,serif" font-size="14.00">+color = dfe0e6</text>
<text text-anchor="start" x="2071.85" y="-275.5" font-family="Times,serif" font-size="14.00">+height = 100</text>
<text text-anchor="start" x="2071.85" y="-258.7" font-family="Times,serif" font-size="14.00">+overflow = hidden</text>
<text text-anchor="start" x="2071.85" y="-241.9" font-family="Times,serif" font-size="14.00">+width = 100</text>
</g>
<!-- 4&#45;&gt;6 -->
<g id="edge1" class="edge"><title>4&#45;&gt;6</title>
<path fill="none" stroke="black" d="M2474.49,-495.627C2408.34,-475.571 2317.7,-442.264 2248,-394.6 2230.26,-382.466 2213.43,-366.411 2199.05,-350.658"/>
<polygon fill="black" stroke="black" points="2474.63,-495.669 2481.52,-493.549 2486.13,-499.097 2479.24,-501.216 2474.63,-495.669"/>
</g>
<!-- 7 -->
<g id="node18" class="node"><title>7</title>
<polygon fill="palegreen" stroke="black" points="2251.5,-250.5 2251.5,-333.7 2352.5,-333.7 2352.5,-250.5 2251.5,-250.5"/>
<text text-anchor="middle" x="2302" y="-317.1" font-family="Times,serif" font-size="14.00">.app</text>
<polyline fill="none" stroke="black" points="2251.5,-308.9 2352.5,-308.9 "/>
<text text-anchor="start" x="2259.5" y="-292.3" font-family="Times,serif" font-size="14.00">+display = flex</text>
<text text-anchor="start" x="2259.5" y="-275.5" font-family="Times,serif" font-size="14.00">+height = 100</text>
<text text-anchor="start" x="2259.5" y="-258.7" font-family="Times,serif" font-size="14.00">+width = 100</text>
</g>
<!-- 4&#45;&gt;7 -->
<g id="edge2" class="edge"><title>4&#45;&gt;7</title>
<path fill="none" stroke="black" d="M2503.36,-493.803C2458.48,-472.578 2397.77,-438.598 2356,-394.6 2339.51,-377.23 2326.61,-353.842 2317.56,-333.895"/>
<polygon fill="black" stroke="black" points="2503.52,-493.877 2510.64,-492.771 2514.4,-498.923 2507.28,-500.029 2503.52,-493.877"/>
</g>
<!-- 8 -->
<g id="node19" class="node"><title>8</title>
<polygon fill="palegreen" stroke="black" points="2359.39,-258.9 2359.39,-325.3 2498.61,-325.3 2498.61,-258.9 2359.39,-258.9"/>
<text text-anchor="middle" x="2429" y="-308.7" font-family="Times,serif" font-size="14.00">.contenedor&#45;izquierdo</text>
<polyline fill="none" stroke="black" points="2359.39,-300.5 2498.61,-300.5 "/>
<text text-anchor="start" x="2367.39" y="-283.9" font-family="Times,serif" font-size="14.00">+flex = 1</text>
<text text-anchor="start" x="2367.39" y="-267.1" font-family="Times,serif" font-size="14.00">+overflow&#45;y = scroll</text>
</g>
<!-- 4&#45;&gt;8 -->
<g id="edge3" class="edge"><title>4&#45;&gt;8</title>
<path fill="none" stroke="black" d="M2544.86,-488.333C2519.64,-445.833 2474.17,-369.218 2448.33,-325.673"/>
<polygon fill="black" stroke="black" points="2544.98,-488.542 2551.49,-491.661 2551.11,-498.862 2544.61,-495.743 2544.98,-488.542"/>
</g>
<!-- 9 -->
<g id="node20" class="node"><title>9</title>
<polygon fill="palegreen" stroke="black" points="2505.89,-250.5 2505.89,-333.7 2620.11,-333.7 2620.11,-250.5 2505.89,-250.5"/>
<text text-anchor="middle" x="2563" y="-317.1" font-family="Times,serif" font-size="14.00">.lista&#45;canciones</text>
<polyline fill="none" stroke="black" points="2505.89,-308.9 2620.11,-308.9 "/>
<text text-anchor="start" x="2513.89" y="-292.3" font-family="Times,serif" font-size="14.00">+list&#45;style = none</text>
<text text-anchor="start" x="2513.89" y="-275.5" font-family="Times,serif" font-size="14.00">+margin = 0</text>
<text text-anchor="start" x="2513.89" y="-258.7" font-family="Times,serif" font-size="14.00">+padding = 0</text>
</g>
<!-- 4&#45;&gt;9 -->
<g id="edge4" class="edge"><title>4&#45;&gt;9</title>
<path fill="none" stroke="black" d="M2563,-486.639C2563,-446.434 2563,-377.695 2563,-333.88"/>
<polygon fill="black" stroke="black" points="2563,-486.862 2567,-492.862 2563,-498.862 2559,-492.862 2563,-486.862"/>
</g>
<!-- 10 -->
<g id="node21" class="node"><title>10</title>
<polygon fill="palegreen" stroke="black" points="2627.56,-242.1 2627.56,-342.1 2844.44,-342.1 2844.44,-242.1 2627.56,-242.1"/>
<text text-anchor="middle" x="2736" y="-325.5" font-family="Times,serif" font-size="14.00">.cancion</text>
<polyline fill="none" stroke="black" points="2627.56,-317.3 2844.44,-317.3 "/>
<text text-anchor="start" x="2635.56" y="-300.7" font-family="Times,serif" font-size="14.00">+background = 1c1c1f</text>
<text text-anchor="start" x="2635.56" y="-283.9" font-family="Times,serif" font-size="14.00">+border&#45;bottom = 2px solid 121314</text>
<text text-anchor="start" x="2635.56" y="-267.1" font-family="Times,serif" font-size="14.00">+cursor = pointer</text>
<text text-anchor="start" x="2635.56" y="-250.3" font-family="Times,serif" font-size="14.00">+padding = 20px</text>
</g>
<!-- 4&#45;&gt;10 -->
<g id="edge5" class="edge"><title>4&#45;&gt;10</title>
<path fill="none" stroke="black" d="M2585.85,-489.073C2614.51,-451.669 2664.04,-387.025 2698.33,-342.263"/>
<polygon fill="black" stroke="black" points="2585.65,-489.336 2585.18,-496.532 2578.35,-498.862 2578.83,-491.666 2585.65,-489.336"/>
</g>
<!-- 11 -->
<g id="node22" class="node"><title>11</title>
<polygon fill="palegreen" stroke="black" points="2851.51,-233.7 2851.51,-350.5 3008.49,-350.5 3008.49,-233.7 2851.51,-233.7"/>
<text text-anchor="middle" x="2930" y="-333.9" font-family="Times,serif" font-size="14.00">.contenedor&#45;derecho</text>
<polyline fill="none" stroke="black" points="2851.51,-325.7 3008.49,-325.7 "/>
<text text-anchor="start" x="2859.51" y="-309.1" font-family="Times,serif" font-size="14.00">+align&#45;items = center</text>
<text text-anchor="start" x="2859.51" y="-292.3" font-family="Times,serif" font-size="14.00">+display = flex</text>
<text text-anchor="start" x="2859.51" y="-275.5" font-family="Times,serif" font-size="14.00">+flex = 2</text>
<text text-anchor="start" x="2859.51" y="-258.7" font-family="Times,serif" font-size="14.00">+flex&#45;direction = column</text>
<text text-anchor="start" x="2859.51" y="-241.9" font-family="Times,serif" font-size="14.00">+justify&#45;content = center</text>
</g>
<!-- 4&#45;&gt;11 -->
<g id="edge6" class="edge"><title>4&#45;&gt;11</title>
<path fill="none" stroke="black" d="M2644.13,-495.162C2704.37,-474.898 2786.42,-441.537 2848,-394.6 2864.03,-382.378 2878.83,-366.386 2891.31,-350.723"/>
<polygon fill="black" stroke="black" points="2643.78,-495.278 2639.34,-500.958 2632.38,-499.04 2636.83,-493.361 2643.78,-495.278"/>
</g>
<!-- 12 -->
<g id="node23" class="node"><title>12</title>
<polygon fill="palegreen" stroke="black" points="3015.02,-258.9 3015.02,-325.3 3164.98,-325.3 3164.98,-258.9 3015.02,-258.9"/>
<text text-anchor="middle" x="3090" y="-308.7" font-family="Times,serif" font-size="14.00">.selected</text>
<polyline fill="none" stroke="black" points="3015.02,-300.5 3164.98,-300.5 "/>
<text text-anchor="start" x="3023.02" y="-283.9" font-family="Times,serif" font-size="14.00">+border&#45;color = a13333</text>
<text text-anchor="start" x="3023.02" y="-267.1" font-family="Times,serif" font-size="14.00">+border&#45;style = solid</text>
</g>
<!-- 4&#45;&gt;12 -->
<g id="edge7" class="edge"><title>4&#45;&gt;12</title>
<path fill="none" stroke="black" d="M2738.82,-496.76C2826.25,-479.408 2930.21,-448.699 3011,-394.6 3037.16,-377.082 3058.47,-348.07 3072.34,-325.54"/>
<polygon fill="black" stroke="black" points="2738.66,-496.792 2733.52,-501.858 2726.87,-499.069 2732.01,-494.003 2738.66,-496.792"/>
</g>
<!-- 5 -->
<g id="node24" class="node"><title>5</title>
<polygon fill="lightyellow" stroke="black" points="3813.96,-501.9 3813.96,-537.9 3910.04,-537.9 3910.04,-501.9 3813.96,-501.9"/>
<text text-anchor="middle" x="3862" y="-515.8" font-family="Times,serif" font-size="14.00">«GLOBAL»</text>
</g>
<!-- 23 -->
<g id="node25" class="node"><title>23</title>
<polygon fill="lightblue" stroke="black" points="3471.13,-478.3 3471.13,-561.5 3624.87,-561.5 3624.87,-478.3 3471.13,-478.3"/>
<text text-anchor="middle" x="3548" y="-544.9" font-family="Times,serif" font-size="14.00">«FUNCTION»</text>
<text text-anchor="middle" x="3548" y="-528.1" font-family="Times,serif" font-size="14.00"> ()</text>
<polyline fill="none" stroke="black" points="3471.13,-519.9 3624.87,-519.9 "/>
<text text-anchor="start" x="3479.13" y="-503.3" font-family="Times,serif" font-size="14.00">&#45;audio : variable = audio</text>
<text text-anchor="start" x="3479.13" y="-486.5" font-family="Times,serif" font-size="14.00">&#45;selected = undefined</text>
</g>
<!-- 24 -->
<g id="node26" class="node"><title>24</title>
<polygon fill="lightblue" stroke="black" points="3401.96,-271.3 3401.96,-312.9 3512.04,-312.9 3512.04,-271.3 3401.96,-271.3"/>
<text text-anchor="middle" x="3457" y="-296.3" font-family="Times,serif" font-size="14.00">«FUNCTION»</text>
<text text-anchor="middle" x="3457" y="-279.5" font-family="Times,serif" font-size="14.00"> ()</text>
</g>
<!-- 23&#45;&gt;24 -->
<g id="edge16" class="edge"><title>23&#45;&gt;24</title>
<path fill="none" stroke="black" d="M3527.07,-466.963C3507.37,-418.075 3478.89,-347.405 3465.09,-313.18"/>
<polygon fill="black" stroke="black" points="3527.14,-467.141 3533.09,-471.21 3531.63,-478.271 3525.67,-474.201 3527.14,-467.141"/>
</g>
<!-- 30 -->
<g id="node32" class="node"><title>30</title>
<polygon fill="lightblue" stroke="black" points="3519.29,-242.1 3519.29,-342.1 3780.71,-342.1 3780.71,-242.1 3519.29,-242.1"/>
<text text-anchor="middle" x="3650" y="-325.5" font-family="Times,serif" font-size="14.00">«FUNCTION»</text>
<text text-anchor="middle" x="3650" y="-308.7" font-family="Times,serif" font-size="14.00"> play(event)</text>
<polyline fill="none" stroke="black" points="3519.29,-300.5 3780.71,-300.5 "/>
<text text-anchor="start" x="3527.29" y="-283.9" font-family="Times,serif" font-size="14.00">&#45;selected.className : string = cancion</text>
<text text-anchor="start" x="3527.29" y="-267.1" font-family="Times,serif" font-size="14.00">&#45;selected</text>
<text text-anchor="start" x="3527.29" y="-250.3" font-family="Times,serif" font-size="14.00">publicclassName : string = cancion selected</text>
</g>
<!-- 23&#45;&gt;30 -->
<g id="edge22" class="edge"><title>23&#45;&gt;30</title>
<path fill="none" stroke="black" d="M3571.41,-467.087C3588.33,-429.63 3611.04,-379.338 3627.7,-342.459"/>
<polygon fill="black" stroke="black" points="3571.29,-467.335 3572.47,-474.449 3566.35,-478.271 3565.18,-471.156 3571.29,-467.335"/>
</g>
<!-- 25 -->
<g id="node27" class="node"><title>25</title>
<polygon fill="khaki" stroke="black" points="3234.71,-133.5 3234.71,-175.1 3355.29,-175.1 3355.29,-133.5 3234.71,-133.5"/>
<text text-anchor="middle" x="3295" y="-158.5" font-family="Times,serif" font-size="14.00">«BLOCK»</text>
<text text-anchor="middle" x="3295" y="-141.7" font-family="Times,serif" font-size="14.00"> LabeledStatement</text>
</g>
<!-- 24&#45;&gt;25 -->
<g id="edge17" class="edge"><title>24&#45;&gt;25</title>
<path fill="none" stroke="black" d="M3418.99,-264.117C3400.47,-250.554 3378.13,-233.558 3359,-217.2 3343.37,-203.839 3326.71,-187.654 3314.3,-175.185"/>
<polygon fill="black" stroke="black" points="3419.13,-264.219 3426.33,-264.51 3428.84,-271.273 3421.63,-270.982 3419.13,-264.219"/>
</g>
<!-- 27 -->
<g id="node29" class="node"><title>27</title>
<polygon fill="lightblue" stroke="black" points="3362.45,-121.1 3362.45,-187.5 3551.55,-187.5 3551.55,-121.1 3362.45,-121.1"/>
<text text-anchor="middle" x="3457" y="-170.9" font-family="Times,serif" font-size="14.00">«FUNCTION»</text>
<text text-anchor="middle" x="3457" y="-154.1" font-family="Times,serif" font-size="14.00"> (canciones)</text>
<polyline fill="none" stroke="black" points="3362.45,-145.9 3551.55,-145.9 "/>
<text text-anchor="start" x="3370.45" y="-129.3" font-family="Times,serif" font-size="14.00">&#45;ul : variable = .lista&#45;canciones</text>
</g>
<!-- 24&#45;&gt;27 -->
<g id="edge19" class="edge"><title>24&#45;&gt;27</title>
<path fill="none" stroke="black" d="M3457,-258.941C3457,-237.387 3457,-209.113 3457,-187.542"/>
<polygon fill="black" stroke="black" points="3457,-259.062 3461,-265.062 3457,-271.062 3453,-265.062 3457,-259.062"/>
</g>
<!-- 29 -->
<g id="node31" class="node"><title>29</title>
<polygon fill="lightblue" stroke="black" points="3558.96,-133.5 3558.96,-175.1 3669.04,-175.1 3669.04,-133.5 3558.96,-133.5"/>
<text text-anchor="middle" x="3614" y="-158.5" font-family="Times,serif" font-size="14.00">«FUNCTION»</text>
<text text-anchor="middle" x="3614" y="-141.7" font-family="Times,serif" font-size="14.00"> function</text>
</g>
<!-- 24&#45;&gt;29 -->
<g id="edge21" class="edge"><title>24&#45;&gt;29</title>
<path fill="none" stroke="black" d="M3476.99,-261.222C3487.18,-248.239 3500.66,-234.013 3516,-225.2 3531.34,-216.386 3539.52,-225.774 3555,-217.2 3573.44,-206.985 3589.58,-189.057 3600.29,-175.115"/>
<polygon fill="black" stroke="black" points="3476.7,-261.606 3476.34,-268.808 3469.55,-271.241 3469.92,-264.039 3476.7,-261.606"/>
</g>
<!-- 26 -->
<g id="node28" class="node"><title>26</title>
<polygon fill="khaki" stroke="black" points="3234.71,-28.9 3234.71,-70.5 3355.29,-70.5 3355.29,-28.9 3234.71,-28.9"/>
<text text-anchor="middle" x="3295" y="-53.9" font-family="Times,serif" font-size="14.00">«BLOCK»</text>
<text text-anchor="middle" x="3295" y="-37.1" font-family="Times,serif" font-size="14.00"> LabeledStatement</text>
</g>
<!-- 25&#45;&gt;26 -->
<g id="edge18" class="edge"><title>25&#45;&gt;26</title>
<path fill="none" stroke="black" d="M3295,-120.627C3295,-104.177 3295,-84.7695 3295,-70.5792"/>
<polygon fill="black" stroke="black" points="3295,-121.03 3299,-127.03 3295,-133.03 3291,-127.03 3295,-121.03"/>
</g>
<!-- 28 -->
<g id="node30" class="node"><title>28</title>
<polygon fill="lightblue" stroke="black" points="3401.96,-16.5 3401.96,-82.9 3512.04,-82.9 3512.04,-16.5 3401.96,-16.5"/>
<text text-anchor="middle" x="3457" y="-66.3" font-family="Times,serif" font-size="14.00">«FUNCTION»</text>
<text text-anchor="middle" x="3457" y="-49.5" font-family="Times,serif" font-size="14.00"> function</text>
<polyline fill="none" stroke="black" points="3401.96,-41.3 3512.04,-41.3 "/>
<text text-anchor="start" x="3409.96" y="-24.7" font-family="Times,serif" font-size="14.00">&#45;li : variable</text>
</g>
<!-- 27&#45;&gt;28 -->
<g id="edge20" class="edge"><title>27&#45;&gt;28</title>
<path fill="none" stroke="black" d="M3457,-108.823C3457,-100.124 3457,-91.1592 3457,-82.9521"/>
<polygon fill="black" stroke="black" points="3457,-108.837 3461,-114.837 3457,-120.837 3453,-114.837 3457,-108.837"/>
</g>
</g>
</svg>
